<mxfile host="app.diagrams.net" modified="2020-06-11T17:57:14.717Z" agent="5.0 (Windows NT 6.1; Win64; x64) AppleWebKit/537.36 (KHTML, like Gecko) Chrome/81.0.4044.138 Safari/537.36" etag="-WqCXDE_b8jfVM443q3k" version="13.2.2" type="github">
  <diagram name="Page-1" id="13e1069c-82ec-6db2-03f1-153e76fe0fe0">
    <mxGraphModel dx="1422" dy="713" grid="1" gridSize="10" guides="1" tooltips="1" connect="1" arrows="1" fold="1" page="1" pageScale="1" pageWidth="1100" pageHeight="850" background="#ffffff" math="0" shadow="0">
      <root>
        <mxCell id="0" />
        <mxCell id="1" parent="0" />
        <mxCell id="7baba1c4bc27f4b0-2" value="HMS" style="shape=umlLifeline;perimeter=lifelinePerimeter;whiteSpace=wrap;html=1;container=1;collapsible=0;recursiveResize=0;outlineConnect=0;rounded=1;shadow=0;comic=0;labelBackgroundColor=none;strokeWidth=2;fontFamily=Verdana;fontSize=12;align=center;fillColor=#f8cecc;strokeColor=#b85450;" parent="1" vertex="1">
          <mxGeometry x="400" y="80" width="100" height="530" as="geometry" />
        </mxCell>
        <mxCell id="7baba1c4bc27f4b0-3" value="Worker" style="shape=umlLifeline;perimeter=lifelinePerimeter;whiteSpace=wrap;html=1;container=1;collapsible=0;recursiveResize=0;outlineConnect=0;rounded=1;shadow=0;comic=0;labelBackgroundColor=none;strokeWidth=2;fontFamily=Verdana;fontSize=12;align=center;fillColor=#f5f5f5;strokeColor=#666666;fontColor=#333333;" parent="1" vertex="1">
          <mxGeometry x="510" y="170" width="110" height="440" as="geometry" />
        </mxCell>
        <mxCell id="7baba1c4bc27f4b0-4" value="HDFS" style="shape=umlLifeline;perimeter=lifelinePerimeter;whiteSpace=wrap;html=1;container=1;collapsible=0;recursiveResize=0;outlineConnect=0;rounded=1;shadow=0;comic=0;labelBackgroundColor=none;strokeWidth=2;fontFamily=Verdana;fontSize=12;align=center;fillColor=#1ba1e2;strokeColor=#006EAF;fontColor=#ffffff;" parent="1" vertex="1">
          <mxGeometry x="830" y="170" width="100" height="430" as="geometry" />
        </mxCell>
        <mxCell id="7baba1c4bc27f4b0-8" value="coordinator" style="shape=umlLifeline;perimeter=lifelinePerimeter;whiteSpace=wrap;html=1;container=1;collapsible=0;recursiveResize=0;outlineConnect=0;rounded=1;shadow=0;comic=0;labelBackgroundColor=none;strokeWidth=3;fontFamily=Verdana;fontSize=12;align=center;fillColor=#d5e8d4;strokeColor=#82b366;glass=0;" parent="1" vertex="1">
          <mxGeometry x="190" y="80" width="100" height="530" as="geometry" />
        </mxCell>
        <mxCell id="A4fYRPUOJlLeQ5B8pnTf-1" value="" style="endArrow=classic;html=1;" parent="1" edge="1">
          <mxGeometry width="50" height="50" relative="1" as="geometry">
            <mxPoint x="239.5" y="230" as="sourcePoint" />
            <mxPoint x="449.5" y="230" as="targetPoint" />
          </mxGeometry>
        </mxCell>
        <mxCell id="A4fYRPUOJlLeQ5B8pnTf-2" value="Begin" style="text;html=1;strokeColor=none;fillColor=none;align=center;verticalAlign=middle;whiteSpace=wrap;rounded=0;" parent="1" vertex="1">
          <mxGeometry x="300" y="150" width="40" height="20" as="geometry" />
        </mxCell>
        <mxCell id="A4fYRPUOJlLeQ5B8pnTf-3" value="" style="curved=1;endArrow=classic;html=1;" parent="1" source="7baba1c4bc27f4b0-8" target="7baba1c4bc27f4b0-8" edge="1">
          <mxGeometry width="50" height="50" relative="1" as="geometry">
            <mxPoint x="520" y="270" as="sourcePoint" />
            <mxPoint x="570" y="220" as="targetPoint" />
            <Array as="points">
              <mxPoint x="300" y="160" />
              <mxPoint x="310" y="190" />
            </Array>
          </mxGeometry>
        </mxCell>
        <mxCell id="A4fYRPUOJlLeQ5B8pnTf-4" value="open transaction" style="text;html=1;strokeColor=none;fillColor=none;align=center;verticalAlign=middle;whiteSpace=wrap;rounded=0;" parent="1" vertex="1">
          <mxGeometry x="290" y="202" width="110" height="20" as="geometry" />
        </mxCell>
        <mxCell id="A4fYRPUOJlLeQ5B8pnTf-5" value="TableScan + Filter + TableWrite&lt;br&gt;Tasks" style="text;html=1;strokeColor=none;fillColor=none;align=center;verticalAlign=middle;whiteSpace=wrap;rounded=0;" parent="1" vertex="1">
          <mxGeometry x="270" y="265" width="180" height="20" as="geometry" />
        </mxCell>
        <mxCell id="A4fYRPUOJlLeQ5B8pnTf-6" value="" style="endArrow=classic;html=1;" parent="1" target="7baba1c4bc27f4b0-3" edge="1">
          <mxGeometry width="50" height="50" relative="1" as="geometry">
            <mxPoint x="239.5" y="294.5" as="sourcePoint" />
            <mxPoint x="560" y="294.5" as="targetPoint" />
          </mxGeometry>
        </mxCell>
        <mxCell id="A4fYRPUOJlLeQ5B8pnTf-7" value="" style="endArrow=classic;html=1;" parent="1" edge="1">
          <mxGeometry width="50" height="50" relative="1" as="geometry">
            <mxPoint x="565" y="481" as="sourcePoint" />
            <mxPoint x="879" y="481" as="targetPoint" />
          </mxGeometry>
        </mxCell>
        <mxCell id="A4fYRPUOJlLeQ5B8pnTf-8" value="Write&amp;nbsp;&lt;br&gt;delete_delta_0000x_0000x_000/bucket_00000&lt;br&gt;with transaction info" style="text;html=1;strokeColor=none;fillColor=none;align=center;verticalAlign=middle;whiteSpace=wrap;rounded=0;" parent="1" vertex="1">
          <mxGeometry x="620" y="400" width="250" height="90" as="geometry" />
        </mxCell>
        <mxCell id="A4fYRPUOJlLeQ5B8pnTf-10" value="" style="endArrow=classic;html=1;" parent="1" edge="1">
          <mxGeometry width="50" height="50" relative="1" as="geometry">
            <mxPoint x="879" y="518" as="sourcePoint" />
            <mxPoint x="239.5" y="518" as="targetPoint" />
            <Array as="points">
              <mxPoint x="660" y="518" />
            </Array>
          </mxGeometry>
        </mxCell>
        <mxCell id="A4fYRPUOJlLeQ5B8pnTf-11" value="" style="endArrow=classic;html=1;" parent="1" edge="1">
          <mxGeometry width="50" height="50" relative="1" as="geometry">
            <mxPoint x="240" y="544" as="sourcePoint" />
            <mxPoint x="450" y="544" as="targetPoint" />
          </mxGeometry>
        </mxCell>
        <mxCell id="A4fYRPUOJlLeQ5B8pnTf-12" value="commit&amp;nbsp; transaction" style="text;html=1;strokeColor=none;fillColor=none;align=center;verticalAlign=middle;whiteSpace=wrap;rounded=0;" parent="1" vertex="1">
          <mxGeometry x="280" y="554" width="130" height="20" as="geometry" />
        </mxCell>
        <mxCell id="A4fYRPUOJlLeQ5B8pnTf-13" value="Success" style="text;html=1;strokeColor=none;fillColor=none;align=center;verticalAlign=middle;whiteSpace=wrap;rounded=0;" parent="1" vertex="1">
          <mxGeometry x="640.75" y="524" width="80" height="20" as="geometry" />
        </mxCell>
        <mxCell id="nN7B6M9PlUdlWclBBNx_-3" value="TableScan + Filter" style="text;html=1;strokeColor=none;fillColor=none;align=center;verticalAlign=middle;whiteSpace=wrap;rounded=0;" parent="1" vertex="1">
          <mxGeometry x="620" y="300" width="110.5" height="20" as="geometry" />
        </mxCell>
        <mxCell id="nN7B6M9PlUdlWclBBNx_-4" value="" style="curved=1;endArrow=classic;html=1;" parent="1" source="7baba1c4bc27f4b0-3" target="7baba1c4bc27f4b0-3" edge="1">
          <mxGeometry width="50" height="50" relative="1" as="geometry">
            <mxPoint x="560" y="305" as="sourcePoint" />
            <mxPoint x="560" y="335" as="targetPoint" />
            <Array as="points">
              <mxPoint x="619.5" y="305" />
              <mxPoint x="629.5" y="335" />
            </Array>
          </mxGeometry>
        </mxCell>
        <mxCell id="nN7B6M9PlUdlWclBBNx_-10" value="Partition based on Bucket ID" style="text;html=1;strokeColor=none;fillColor=none;align=center;verticalAlign=middle;whiteSpace=wrap;rounded=0;" parent="1" vertex="1">
          <mxGeometry x="625" y="360" width="110.5" height="20" as="geometry" />
        </mxCell>
        <mxCell id="nN7B6M9PlUdlWclBBNx_-11" value="" style="curved=1;endArrow=classic;html=1;" parent="1" source="7baba1c4bc27f4b0-3" target="7baba1c4bc27f4b0-3" edge="1">
          <mxGeometry width="50" height="50" relative="1" as="geometry">
            <mxPoint x="570" y="365" as="sourcePoint" />
            <mxPoint x="570" y="395" as="targetPoint" />
            <Array as="points">
              <mxPoint x="624.5" y="365" />
              <mxPoint x="634.5" y="395" />
            </Array>
          </mxGeometry>
        </mxCell>
      </root>
    </mxGraphModel>
  </diagram>
</mxfile>
